<?xml version="1.0" standalone="no"?>
<!DOCTYPE svg PUBLIC "-//W3C//DTD SVG 20010904//EN"
 "http://www.w3.org/TR/2001/REC-SVG-20010904/DTD/svg10.dtd">
<svg version="1.0" xmlns="http://www.w3.org/2000/svg"
 width="483.000000pt" height="268.000000pt" viewBox="0 0 483.000000 268.000000"
 preserveAspectRatio="xMidYMid meet">

<g transform="translate(0.000000,268.000000) scale(0.100000,-0.100000)"
fill="#000000" stroke="none">
<path d="M439 2159 c-12 -20 -14 -164 -14 -794 0 -424 3 -782 8 -798 12 -42
74 -105 115 -117 24 -6 329 -10 842 -10 l805 0 -475 475 -475 475 -5 -247 -5
-248 -187 -3 -188 -2 0 442 0 443 -204 204 c-201 201 -204 203 -217 180z"/>
<path d="M2270 1386 l0 -346 65 0 65 0 0 100 0 100 118 0 c134 0 187 13 245
61 67 56 96 145 76 238 -14 65 -71 130 -141 162 -48 21 -71 23 -240 27 l-188
4 0 -346z m377 210 c18 -9 39 -26 47 -38 21 -29 21 -112 0 -147 -28 -48 -50
-55 -176 -59 l-118 -4 0 137 0 138 108 -5 c71 -4 119 -11 139 -22z"/>
<path d="M3030 1551 c-30 -10 -65 -24 -77 -31 l-21 -14 21 -43 c23 -48 27 -50
63 -27 33 22 154 31 195 14 28 -12 59 -58 59 -90 0 -6 -33 -10 -85 -10 -125 0
-183 -15 -227 -60 -35 -34 -38 -43 -38 -91 0 -93 53 -151 151 -164 65 -9 121
2 164 31 l35 23 0 -24 c0 -24 3 -25 60 -25 l60 0 0 188 c0 211 -9 248 -71 295
-66 49 -187 61 -289 28z m240 -321 c0 -68 -92 -121 -172 -99 -58 15 -77 70
-38 109 17 17 33 20 115 20 l95 0 0 -30z"/>
<path d="M3460 1552 c0 -4 50 -121 110 -260 l110 -252 -19 -39 c-11 -21 -27
-41 -36 -45 -28 -10 -75 -7 -104 9 -32 16 -37 13 -65 -42 l-17 -33 32 -19 c90
-55 210 -32 272 51 13 18 82 166 152 328 70 162 129 299 132 303 3 4 -24 7
-58 5 l-63 -3 -77 -180 c-43 -99 -80 -180 -84 -180 -3 0 -41 82 -83 182 l-77
183 -62 0 c-35 0 -63 -4 -63 -8z"/>
</g>
</svg>
